<?xml version="1.0" encoding="UTF-8"?>
<svg xmlns="http://www.w3.org/2000/svg" xmlns:xlink="http://www.w3.org/1999/xlink" width="32px" height="32px" viewBox="0 0 32 32" version="1.1">
<g id="surface1">
<path style=" stroke:none;fill-rule:nonzero;fill:rgb(99.607843%,99.607843%,99.607843%);fill-opacity:1;" d="M 0 0 C 10.558594 0 21.121094 0 32 0 C 32 10.558594 32 21.121094 32 32 C 21.441406 32 10.878906 32 0 32 C 0 21.441406 0 10.878906 0 0 Z M 0 0 "/>
<path style=" stroke:none;fill-rule:nonzero;fill:rgb(1.568628%,1.568628%,1.568628%);fill-opacity:1;" d="M 16.089844 1.984375 C 16.195312 2.089844 16.234375 2.195312 16.273438 2.335938 C 16.351562 2.589844 16.46875 2.820312 16.59375 3.050781 C 16.601562 3.070312 16.613281 3.085938 16.621094 3.105469 C 17.269531 4.308594 18.238281 5.558594 19.578125 5.988281 C 19.796875 6.050781 20 6.050781 20.226562 6.050781 C 20.261719 6.050781 20.296875 6.054688 20.335938 6.054688 C 20.898438 6.054688 21.441406 5.824219 21.855469 5.441406 C 22.035156 5.242188 22.179688 5 22.25 4.742188 C 22.261719 4.714844 22.269531 4.683594 22.277344 4.65625 C 22.398438 4.203125 22.371094 3.777344 22.140625 3.367188 C 21.96875 3.109375 21.785156 2.953125 21.480469 2.875 C 21.234375 2.839844 20.992188 2.84375 20.773438 2.976562 C 20.554688 3.140625 20.417969 3.355469 20.375 3.628906 C 20.363281 3.867188 20.429688 4.105469 20.570312 4.300781 C 20.585938 4.316406 20.605469 4.335938 20.621094 4.355469 C 20.621094 4.375 20.621094 4.394531 20.621094 4.414062 C 20.648438 4.425781 20.648438 4.425781 20.671875 4.4375 C 20.742188 4.472656 20.742188 4.472656 20.808594 4.519531 C 20.945312 4.59375 21.089844 4.578125 21.246094 4.5625 C 21.347656 4.523438 21.402344 4.492188 21.480469 4.414062 C 21.6875 4.394531 21.6875 4.394531 21.792969 4.464844 C 21.851562 4.554688 21.855469 4.601562 21.835938 4.710938 C 21.675781 4.910156 21.445312 5.046875 21.191406 5.078125 C 20.867188 5.089844 20.59375 4.988281 20.355469 4.769531 C 20.070312 4.492188 19.910156 4.132812 19.898438 3.734375 C 19.910156 3.34375 20.042969 2.988281 20.332031 2.714844 C 20.644531 2.457031 20.992188 2.34375 21.394531 2.371094 C 21.792969 2.417969 22.144531 2.617188 22.410156 2.921875 C 22.742188 3.359375 22.863281 3.84375 22.816406 4.386719 C 22.722656 5.050781 22.433594 5.582031 21.914062 6.015625 C 21.277344 6.488281 20.457031 6.601562 19.6875 6.503906 C 19.105469 6.398438 18.589844 6.121094 18.128906 5.757812 C 17.808594 5.5 17.519531 5.375 17.097656 5.421875 C 16.757812 5.507812 16.511719 5.71875 16.296875 5.984375 C 16.308594 6 16.320312 6.015625 16.332031 6.03125 C 16.46875 6.207031 16.550781 6.339844 16.542969 6.566406 C 16.519531 6.730469 16.414062 6.855469 16.292969 6.960938 C 16.136719 7.074219 15.976562 7.078125 15.792969 7.050781 C 15.644531 6.992188 15.53125 6.902344 15.449219 6.761719 C 15.378906 6.589844 15.378906 6.417969 15.441406 6.242188 C 15.496094 6.164062 15.496094 6.164062 15.578125 6.085938 C 15.648438 6.023438 15.648438 6.023438 15.648438 5.957031 C 15.511719 5.710938 15.273438 5.554688 15.011719 5.453125 C 14.757812 5.382812 14.46875 5.390625 14.222656 5.488281 C 14.078125 5.570312 13.953125 5.671875 13.824219 5.777344 C 13.414062 6.097656 12.957031 6.34375 12.445312 6.460938 C 12.425781 6.464844 12.40625 6.46875 12.382812 6.472656 C 11.675781 6.636719 10.90625 6.527344 10.28125 6.164062 C 9.738281 5.8125 9.382812 5.328125 9.21875 4.699219 C 9.109375 4.128906 9.144531 3.546875 9.472656 3.054688 C 9.71875 2.722656 10.007812 2.507812 10.402344 2.386719 C 10.847656 2.324219 11.21875 2.410156 11.585938 2.667969 C 11.820312 2.851562 11.988281 3.148438 12.046875 3.441406 C 12.09375 3.894531 12.023438 4.3125 11.726562 4.671875 C 11.523438 4.894531 11.277344 5.046875 10.972656 5.074219 C 10.679688 5.082031 10.488281 5.003906 10.25 4.828125 C 10.234375 4.816406 10.214844 4.804688 10.195312 4.792969 C 10.140625 4.703125 10.148438 4.605469 10.164062 4.503906 C 10.191406 4.445312 10.191406 4.445312 10.25 4.414062 C 10.449219 4.386719 10.449219 4.386719 10.539062 4.449219 C 10.554688 4.460938 10.570312 4.476562 10.585938 4.488281 C 10.703125 4.585938 10.816406 4.582031 10.964844 4.574219 C 11.148438 4.550781 11.265625 4.480469 11.386719 4.335938 C 11.558594 4.078125 11.625 3.835938 11.585938 3.527344 C 11.507812 3.238281 11.375 3.089844 11.125 2.941406 C 10.902344 2.828125 10.59375 2.835938 10.355469 2.90625 C 10.039062 3.050781 9.851562 3.292969 9.71875 3.613281 C 9.707031 3.640625 9.695312 3.667969 9.6875 3.695312 C 9.550781 4.195312 9.6875 4.75 9.929688 5.191406 C 9.988281 5.28125 10.058594 5.347656 10.132812 5.421875 C 10.132812 5.441406 10.132812 5.460938 10.132812 5.480469 C 10.152344 5.488281 10.167969 5.496094 10.183594 5.503906 C 10.253906 5.542969 10.304688 5.585938 10.363281 5.636719 C 10.753906 5.941406 11.21875 6.0625 11.707031 6.054688 C 11.738281 6.054688 11.769531 6.054688 11.804688 6.054688 C 12.125 6.050781 12.410156 6 12.707031 5.878906 C 12.734375 5.867188 12.757812 5.855469 12.785156 5.847656 C 13.410156 5.582031 13.914062 5.109375 14.339844 4.59375 C 14.355469 4.578125 14.367188 4.5625 14.378906 4.546875 C 14.890625 3.933594 15.355469 3.292969 15.644531 2.546875 C 15.65625 2.523438 15.664062 2.5 15.675781 2.472656 C 15.703125 2.398438 15.71875 2.328125 15.730469 2.25 C 15.746094 2.15625 15.761719 2.105469 15.8125 2.027344 C 15.914062 1.96875 15.976562 1.96875 16.089844 1.984375 Z M 16.089844 1.984375 "/>
<path style=" stroke:none;fill-rule:nonzero;fill:rgb(1.568628%,1.568628%,1.568628%);fill-opacity:1;" d="M 16.199219 24.976562 C 16.347656 25.070312 16.476562 25.195312 16.535156 25.363281 C 16.554688 25.554688 16.523438 25.703125 16.414062 25.867188 C 16.371094 25.917969 16.371094 25.917969 16.324219 25.957031 C 16.304688 25.957031 16.285156 25.957031 16.265625 25.957031 C 16.484375 26.273438 16.726562 26.453125 17.097656 26.578125 C 17.570312 26.617188 17.835938 26.472656 18.195312 26.191406 C 18.933594 25.617188 19.777344 25.386719 20.703125 25.492188 C 20.859375 25.515625 21.007812 25.550781 21.15625 25.601562 C 21.175781 25.605469 21.195312 25.613281 21.214844 25.617188 C 21.769531 25.800781 22.238281 26.179688 22.527344 26.6875 C 22.613281 26.851562 22.671875 27.023438 22.726562 27.199219 C 22.738281 27.246094 22.738281 27.246094 22.753906 27.292969 C 22.898438 27.820312 22.832031 28.34375 22.574219 28.820312 C 22.34375 29.21875 22.011719 29.472656 21.570312 29.601562 C 21.179688 29.679688 20.851562 29.617188 20.507812 29.414062 C 20.203125 29.207031 20.023438 28.910156 19.925781 28.554688 C 19.851562 28.140625 19.945312 27.765625 20.183594 27.421875 C 20.371094 27.171875 20.59375 27.03125 20.890625 26.933594 C 21.242188 26.902344 21.503906 26.976562 21.777344 27.199219 C 21.835938 27.289062 21.835938 27.289062 21.832031 27.394531 C 21.808594 27.496094 21.808594 27.496094 21.777344 27.554688 C 21.679688 27.605469 21.585938 27.605469 21.480469 27.585938 C 21.398438 27.527344 21.398438 27.527344 21.332031 27.464844 C 21.179688 27.414062 20.980469 27.398438 20.828125 27.460938 C 20.777344 27.496094 20.777344 27.496094 20.710938 27.554688 C 20.667969 27.570312 20.667969 27.570312 20.621094 27.585938 C 20.589844 27.640625 20.589844 27.640625 20.5625 27.703125 C 20.550781 27.722656 20.539062 27.742188 20.523438 27.761719 C 20.371094 28.015625 20.371094 28.308594 20.433594 28.59375 C 20.496094 28.769531 20.59375 28.894531 20.742188 29.007812 C 20.757812 29.019531 20.773438 29.03125 20.789062 29.046875 C 21.003906 29.183594 21.308594 29.15625 21.546875 29.105469 C 21.84375 29.011719 22.050781 28.808594 22.191406 28.535156 C 22.410156 28.035156 22.367188 27.585938 22.191406 27.082031 C 22.011719 26.636719 21.648438 26.320312 21.21875 26.125 C 21.136719 26.09375 21.058594 26.070312 20.976562 26.042969 C 20.953125 26.035156 20.925781 26.027344 20.898438 26.019531 C 20.675781 25.960938 20.472656 25.941406 20.246094 25.941406 C 20.195312 25.941406 20.195312 25.941406 20.144531 25.941406 C 19.871094 25.949219 19.632812 25.984375 19.378906 26.074219 C 19.347656 26.085938 19.316406 26.09375 19.285156 26.105469 C 18.667969 26.339844 18.167969 26.78125 17.757812 27.292969 C 17.691406 27.375 17.617188 27.460938 17.546875 27.542969 C 17.101562 28.082031 16.710938 28.667969 16.414062 29.304688 C 16.398438 29.332031 16.386719 29.363281 16.371094 29.394531 C 16.296875 29.546875 16.242188 29.699219 16.199219 29.863281 C 16.175781 29.933594 16.148438 29.96875 16.089844 30.015625 C 15.976562 30.027344 15.910156 30.035156 15.820312 29.96875 C 15.746094 29.875 15.734375 29.804688 15.714844 29.691406 C 15.609375 29.214844 15.355469 28.78125 15.082031 28.386719 C 15.070312 28.367188 15.058594 28.351562 15.046875 28.335938 C 14.796875 27.972656 14.53125 27.625 14.230469 27.300781 C 14.171875 27.238281 14.117188 27.175781 14.0625 27.109375 C 13.5625 26.542969 12.871094 26.027344 12.089844 25.957031 C 11.390625 25.917969 10.785156 26.011719 10.222656 26.460938 C 9.886719 26.769531 9.671875 27.242188 9.648438 27.699219 C 9.640625 28.125 9.6875 28.496094 9.984375 28.828125 C 10.214844 29.050781 10.425781 29.128906 10.742188 29.140625 C 10.976562 29.132812 11.132812 29.089844 11.3125 28.933594 C 11.335938 28.910156 11.355469 28.886719 11.378906 28.859375 C 11.398438 28.835938 11.417969 28.816406 11.441406 28.792969 C 11.585938 28.578125 11.617188 28.34375 11.585938 28.089844 C 11.511719 27.832031 11.398438 27.609375 11.164062 27.46875 C 10.972656 27.414062 10.78125 27.394531 10.605469 27.496094 C 10.523438 27.546875 10.523438 27.546875 10.488281 27.585938 C 10.277344 27.597656 10.277344 27.597656 10.191406 27.554688 C 10.144531 27.457031 10.136719 27.363281 10.164062 27.257812 C 10.289062 27.09375 10.503906 26.996094 10.695312 26.933594 C 11.046875 26.90625 11.3125 26.976562 11.585938 27.199219 C 11.78125 27.382812 11.910156 27.570312 12 27.820312 C 12.011719 27.851562 12.011719 27.851562 12.023438 27.882812 C 12.140625 28.261719 12.050781 28.632812 11.878906 28.976562 C 11.707031 29.292969 11.425781 29.476562 11.085938 29.582031 C 10.695312 29.683594 10.328125 29.628906 9.980469 29.425781 C 9.898438 29.371094 9.824219 29.308594 9.75 29.246094 C 9.726562 29.226562 9.707031 29.210938 9.683594 29.191406 C 9.480469 29.015625 9.382812 28.773438 9.273438 28.535156 C 9.257812 28.496094 9.257812 28.496094 9.238281 28.457031 C 9.0625 27.953125 9.164062 27.300781 9.382812 26.824219 C 9.484375 26.625 9.601562 26.449219 9.75 26.28125 C 9.765625 26.261719 9.78125 26.242188 9.800781 26.222656 C 10.113281 25.882812 10.554688 25.667969 10.992188 25.539062 C 11.011719 25.535156 11.03125 25.53125 11.046875 25.523438 C 11.261719 25.46875 11.472656 25.472656 11.691406 25.472656 C 11.710938 25.472656 11.730469 25.472656 11.753906 25.472656 C 12.605469 25.476562 13.304688 25.792969 13.960938 26.332031 C 14.195312 26.523438 14.445312 26.601562 14.75 26.589844 C 15.082031 26.550781 15.398438 26.375 15.617188 26.125 C 15.648438 26.074219 15.648438 26.074219 15.640625 26.015625 C 15.609375 25.945312 15.578125 25.90625 15.527344 25.851562 C 15.402344 25.71875 15.394531 25.585938 15.398438 25.410156 C 15.417969 25.253906 15.496094 25.152344 15.609375 25.046875 C 15.796875 24.914062 15.980469 24.917969 16.199219 24.976562 Z M 16.199219 24.976562 "/>
<path style=" stroke:none;fill-rule:nonzero;fill:rgb(5.882353%,5.490196%,4.705882%);fill-opacity:1;" d="M 9.601562 13.359375 C 9.625 13.359375 9.652344 13.355469 9.675781 13.355469 C 9.757812 13.355469 9.839844 13.355469 9.921875 13.355469 C 9.964844 13.355469 9.964844 13.355469 10.007812 13.355469 C 10.152344 13.355469 10.300781 13.355469 10.449219 13.355469 C 10.601562 13.355469 10.753906 13.351562 10.90625 13.351562 C 11.023438 13.351562 11.140625 13.351562 11.257812 13.351562 C 11.316406 13.351562 11.371094 13.351562 11.429688 13.347656 C 11.507812 13.347656 11.585938 13.347656 11.664062 13.347656 C 11.699219 13.347656 11.699219 13.347656 11.734375 13.347656 C 11.839844 13.347656 11.898438 13.355469 11.984375 13.417969 C 12.035156 13.488281 12.042969 13.519531 12.046875 13.605469 C 12.046875 13.640625 12.046875 13.640625 12.046875 13.675781 C 12.046875 13.699219 12.042969 13.722656 12.042969 13.75 C 12.046875 13.785156 12.046875 13.785156 12.046875 13.820312 C 12.046875 13.84375 12.046875 13.867188 12.046875 13.890625 C 12.046875 13.910156 12.046875 13.933594 12.046875 13.953125 C 12.03125 14.015625 12.03125 14.015625 11.910156 14.132812 C 11.597656 14.132812 11.285156 14.132812 10.964844 14.132812 C 10.964844 15.089844 10.964844 16.050781 10.964844 17.035156 C 11.402344 17.035156 11.84375 17.035156 12.296875 17.035156 C 12.289062 16.632812 12.289062 16.632812 12.28125 16.230469 C 12.28125 16.179688 12.28125 16.128906 12.28125 16.078125 C 12.28125 16.054688 12.28125 16.027344 12.28125 16 C 12.28125 15.871094 12.285156 15.808594 12.363281 15.703125 C 12.449219 15.640625 12.492188 15.625 12.597656 15.628906 C 12.640625 15.628906 12.640625 15.628906 12.683594 15.628906 C 12.726562 15.628906 12.726562 15.628906 12.773438 15.632812 C 12.816406 15.632812 12.816406 15.632812 12.863281 15.632812 C 13.109375 15.636719 13.109375 15.636719 13.214844 15.703125 C 13.257812 15.789062 13.25 15.855469 13.25 15.949219 C 13.25 15.96875 13.25 15.988281 13.25 16.007812 C 13.25 16.074219 13.25 16.136719 13.25 16.199219 C 13.25 16.242188 13.25 16.289062 13.25 16.332031 C 13.25 16.425781 13.25 16.519531 13.25 16.609375 C 13.25 16.730469 13.253906 16.847656 13.253906 16.96875 C 13.253906 17.058594 13.253906 17.148438 13.253906 17.242188 C 13.253906 17.285156 13.253906 17.328125 13.253906 17.371094 C 13.253906 17.433594 13.253906 17.496094 13.253906 17.558594 C 13.253906 17.609375 13.253906 17.609375 13.253906 17.664062 C 13.246094 17.75 13.246094 17.75 13.207031 17.796875 C 13.136719 17.851562 13.089844 17.847656 13 17.847656 C 12.96875 17.847656 12.9375 17.847656 12.90625 17.847656 C 12.851562 17.847656 12.851562 17.847656 12.800781 17.847656 C 12.761719 17.847656 12.726562 17.847656 12.6875 17.851562 C 12.585938 17.851562 12.484375 17.851562 12.382812 17.851562 C 12.300781 17.851562 12.214844 17.851562 12.132812 17.851562 C 11.933594 17.851562 11.734375 17.851562 11.535156 17.851562 C 11.328125 17.851562 11.125 17.851562 10.917969 17.851562 C 10.742188 17.851562 10.566406 17.851562 10.390625 17.851562 C 10.285156 17.851562 10.179688 17.851562 10.074219 17.851562 C 9.957031 17.851562 9.839844 17.851562 9.722656 17.851562 C 9.671875 17.851562 9.671875 17.851562 9.617188 17.851562 C 9.585938 17.851562 9.554688 17.851562 9.519531 17.851562 C 9.480469 17.851562 9.480469 17.851562 9.4375 17.851562 C 9.339844 17.832031 9.304688 17.792969 9.246094 17.71875 C 9.230469 17.660156 9.230469 17.660156 9.230469 17.601562 C 9.230469 17.578125 9.226562 17.558594 9.226562 17.535156 C 9.230469 17.511719 9.230469 17.488281 9.230469 17.464844 C 9.230469 17.445312 9.230469 17.421875 9.226562 17.398438 C 9.226562 17.375 9.230469 17.355469 9.230469 17.332031 C 9.230469 17.3125 9.230469 17.292969 9.230469 17.273438 C 9.246094 17.214844 9.246094 17.214844 9.363281 17.097656 C 9.578125 17.097656 9.792969 17.097656 10.015625 17.097656 C 10.015625 16.117188 10.015625 15.140625 10.015625 14.132812 C 9.808594 14.132812 9.605469 14.132812 9.394531 14.132812 C 9.246094 13.984375 9.246094 13.984375 9.226562 13.878906 C 9.230469 13.839844 9.230469 13.800781 9.230469 13.761719 C 9.230469 13.726562 9.234375 13.6875 9.234375 13.648438 C 9.242188 13.550781 9.257812 13.480469 9.304688 13.394531 C 9.398438 13.34375 9.5 13.359375 9.601562 13.359375 Z M 9.601562 13.359375 "/>
<path style=" stroke:none;fill-rule:nonzero;fill:rgb(5.882353%,5.490196%,4.705882%);fill-opacity:1;" d="M 21.4375 13.484375 C 21.503906 13.539062 21.570312 13.597656 21.628906 13.660156 C 21.632812 13.621094 21.632812 13.585938 21.636719 13.546875 C 21.648438 13.457031 21.65625 13.425781 21.714844 13.351562 C 21.839844 13.257812 21.949219 13.269531 22.097656 13.265625 C 22.121094 13.265625 22.144531 13.265625 22.171875 13.265625 C 22.3125 13.265625 22.402344 13.273438 22.519531 13.363281 C 22.566406 13.414062 22.550781 13.472656 22.554688 13.539062 C 22.554688 13.574219 22.554688 13.605469 22.554688 13.636719 C 22.554688 13.6875 22.554688 13.6875 22.554688 13.742188 C 22.554688 13.777344 22.554688 13.8125 22.554688 13.847656 C 22.554688 13.921875 22.554688 13.996094 22.554688 14.070312 C 22.554688 14.1875 22.554688 14.300781 22.558594 14.414062 C 22.558594 14.488281 22.558594 14.558594 22.558594 14.632812 C 22.558594 14.683594 22.558594 14.683594 22.558594 14.734375 C 22.558594 14.769531 22.558594 14.800781 22.558594 14.832031 C 22.558594 14.875 22.558594 14.875 22.558594 14.917969 C 22.546875 15.007812 22.519531 15.046875 22.460938 15.109375 C 22.332031 15.195312 22.195312 15.183594 22.046875 15.183594 C 22.019531 15.183594 21.992188 15.183594 21.964844 15.1875 C 21.835938 15.1875 21.769531 15.183594 21.65625 15.105469 C 21.59375 15.011719 21.578125 14.949219 21.570312 14.835938 C 21.542969 14.625 21.5 14.460938 21.335938 14.316406 C 21.066406 14.128906 20.796875 14.125 20.476562 14.179688 C 20.21875 14.253906 20.058594 14.410156 19.925781 14.636719 C 19.859375 14.773438 19.820312 14.90625 19.792969 15.050781 C 19.789062 15.078125 19.78125 15.105469 19.777344 15.132812 C 19.703125 15.667969 19.742188 16.261719 20.050781 16.722656 C 20.171875 16.875 20.347656 16.976562 20.535156 17.035156 C 20.636719 17.042969 20.742188 17.042969 20.847656 17.042969 C 20.875 17.042969 20.902344 17.042969 20.933594 17.042969 C 21.210938 17.042969 21.453125 16.996094 21.710938 16.890625 C 21.738281 16.878906 21.738281 16.878906 21.765625 16.867188 C 21.835938 16.839844 21.910156 16.808594 21.980469 16.773438 C 22.109375 16.71875 22.199219 16.691406 22.339844 16.710938 C 22.464844 16.804688 22.542969 16.917969 22.578125 17.066406 C 22.59375 17.179688 22.601562 17.28125 22.578125 17.394531 C 22.308594 17.738281 21.6875 17.875 21.273438 17.925781 C 20.8125 17.957031 20.296875 17.984375 19.878906 17.757812 C 19.859375 17.75 19.835938 17.738281 19.816406 17.726562 C 19.324219 17.460938 19.007812 17.035156 18.832031 16.507812 C 18.628906 15.804688 18.65625 14.964844 18.980469 14.304688 C 19.097656 14.09375 19.238281 13.917969 19.40625 13.75 C 19.425781 13.730469 19.445312 13.710938 19.464844 13.691406 C 19.953125 13.226562 20.875 13.078125 21.4375 13.484375 Z M 21.4375 13.484375 "/>
<path style=" stroke:none;fill-rule:nonzero;fill:rgb(5.490196%,5.098039%,4.313726%);fill-opacity:1;" d="M 14.261719 13.34375 C 14.289062 13.34375 14.3125 13.34375 14.339844 13.34375 C 14.421875 13.34375 14.503906 13.34375 14.585938 13.34375 C 14.644531 13.34375 14.703125 13.34375 14.757812 13.34375 C 14.878906 13.34375 15 13.347656 15.121094 13.347656 C 15.273438 13.347656 15.429688 13.347656 15.582031 13.347656 C 15.703125 13.347656 15.820312 13.347656 15.9375 13.347656 C 15.996094 13.347656 16.050781 13.347656 16.109375 13.347656 C 16.1875 13.347656 16.269531 13.351562 16.347656 13.351562 C 16.371094 13.351562 16.394531 13.351562 16.417969 13.351562 C 16.578125 13.351562 16.578125 13.351562 16.652344 13.40625 C 16.710938 13.5 16.695312 13.605469 16.695312 13.714844 C 16.695312 13.738281 16.695312 13.761719 16.695312 13.785156 C 16.695312 13.820312 16.695312 13.820312 16.695312 13.855469 C 16.695312 13.878906 16.695312 13.898438 16.695312 13.921875 C 16.679688 13.984375 16.679688 13.984375 16.5625 14.132812 C 16.261719 14.132812 15.957031 14.132812 15.644531 14.132812 C 15.644531 15.089844 15.644531 16.050781 15.644531 17.035156 C 16.074219 17.027344 16.503906 17.015625 16.949219 17.007812 C 16.953125 16.601562 16.953125 16.601562 16.960938 16.195312 C 16.960938 16.144531 16.960938 16.09375 16.960938 16.042969 C 16.964844 16.003906 16.964844 16.003906 16.964844 15.964844 C 16.964844 15.9375 16.964844 15.914062 16.964844 15.886719 C 16.964844 15.867188 16.964844 15.84375 16.964844 15.820312 C 16.980469 15.746094 17.007812 15.722656 17.066406 15.675781 C 17.175781 15.617188 17.308594 15.636719 17.429688 15.636719 C 17.460938 15.636719 17.488281 15.636719 17.515625 15.636719 C 17.542969 15.636719 17.570312 15.636719 17.601562 15.632812 C 17.625 15.632812 17.648438 15.632812 17.675781 15.632812 C 17.769531 15.648438 17.820312 15.671875 17.894531 15.734375 C 17.914062 15.820312 17.914062 15.820312 17.914062 15.925781 C 17.914062 15.945312 17.914062 15.964844 17.914062 15.984375 C 17.914062 16.050781 17.914062 16.113281 17.914062 16.179688 C 17.914062 16.222656 17.914062 16.269531 17.914062 16.3125 C 17.914062 16.40625 17.914062 16.503906 17.914062 16.597656 C 17.910156 16.714844 17.910156 16.835938 17.910156 16.957031 C 17.910156 17.050781 17.910156 17.140625 17.910156 17.234375 C 17.910156 17.28125 17.910156 17.324219 17.910156 17.367188 C 17.910156 17.429688 17.910156 17.492188 17.910156 17.554688 C 17.910156 17.589844 17.910156 17.625 17.90625 17.660156 C 17.894531 17.75 17.894531 17.75 17.859375 17.796875 C 17.789062 17.851562 17.742188 17.847656 17.652344 17.847656 C 17.605469 17.847656 17.605469 17.847656 17.558594 17.847656 C 17.523438 17.847656 17.488281 17.847656 17.449219 17.847656 C 17.394531 17.847656 17.394531 17.847656 17.339844 17.847656 C 17.238281 17.847656 17.136719 17.847656 17.035156 17.847656 C 16.929688 17.847656 16.824219 17.847656 16.71875 17.847656 C 16.539062 17.847656 16.363281 17.847656 16.183594 17.847656 C 15.980469 17.847656 15.773438 17.847656 15.570312 17.847656 C 15.390625 17.847656 15.214844 17.847656 15.039062 17.847656 C 14.933594 17.847656 14.828125 17.847656 14.722656 17.847656 C 14.605469 17.847656 14.488281 17.847656 14.371094 17.847656 C 14.335938 17.847656 14.300781 17.847656 14.265625 17.847656 C 14.234375 17.847656 14.203125 17.847656 14.167969 17.847656 C 14.140625 17.847656 14.113281 17.847656 14.085938 17.847656 C 14 17.835938 13.976562 17.816406 13.925781 17.75 C 13.890625 17.644531 13.890625 17.5625 13.890625 17.453125 C 13.890625 17.417969 13.890625 17.382812 13.890625 17.34375 C 13.894531 17.25 13.902344 17.203125 13.957031 17.125 C 14.167969 17.019531 14.429688 17.078125 14.667969 17.066406 C 14.667969 16.097656 14.667969 15.128906 14.667969 14.132812 C 14.453125 14.125 14.238281 14.113281 14.015625 14.105469 C 13.890625 13.980469 13.890625 13.894531 13.886719 13.722656 C 13.886719 13.6875 13.886719 13.648438 13.882812 13.613281 C 13.914062 13.375 14.046875 13.339844 14.261719 13.34375 Z M 14.261719 13.34375 "/>
<path style=" stroke:none;fill-rule:nonzero;fill:rgb(1.568628%,1.568628%,1.568628%);fill-opacity:1;" d="M 27.40625 24.917969 C 27.628906 25.09375 27.777344 25.289062 27.820312 25.570312 C 27.847656 25.839844 27.804688 26.050781 27.644531 26.273438 C 27.484375 26.460938 27.328125 26.589844 27.082031 26.636719 C 26.761719 26.664062 26.527344 26.640625 26.273438 26.433594 C 26.011719 26.191406 25.964844 25.953125 25.925781 25.601562 C 25.902344 25.617188 25.878906 25.636719 25.855469 25.65625 C 25.75 25.734375 25.644531 25.816406 25.539062 25.894531 C 25.523438 25.910156 25.507812 25.921875 25.488281 25.9375 C 24.992188 26.308594 24.460938 26.589844 23.820312 26.519531 C 23.578125 26.480469 23.320312 26.433594 23.140625 26.25 C 23.128906 26.140625 23.125 26.070312 23.183594 25.96875 C 23.300781 25.902344 23.398438 25.925781 23.527344 25.957031 C 23.550781 25.964844 23.578125 25.976562 23.605469 25.984375 C 23.960938 26.089844 24.371094 26.046875 24.703125 25.890625 C 24.972656 25.742188 25.207031 25.558594 25.445312 25.359375 C 25.585938 25.246094 25.730469 25.144531 25.882812 25.046875 C 25.910156 25.03125 25.910156 25.03125 25.941406 25.011719 C 26.339844 24.769531 26.988281 24.652344 27.40625 24.917969 Z M 27.40625 24.917969 "/>
<path style=" stroke:none;fill-rule:nonzero;fill:rgb(1.568628%,1.568628%,1.568628%);fill-opacity:1;" d="M 5.15625 24.78125 C 5.203125 24.78125 5.203125 24.78125 5.246094 24.78125 C 5.808594 24.792969 6.226562 25.160156 6.644531 25.5 C 6.808594 25.632812 6.976562 25.75 7.164062 25.851562 C 7.183594 25.863281 7.199219 25.871094 7.21875 25.882812 C 7.453125 26.003906 7.667969 26.023438 7.925781 26.023438 C 7.953125 26.023438 7.980469 26.023438 8.007812 26.027344 C 8.183594 26.027344 8.3125 25.996094 8.472656 25.925781 C 8.59375 25.910156 8.652344 25.90625 8.753906 25.972656 C 8.816406 26.066406 8.820312 26.113281 8.800781 26.222656 C 8.671875 26.414062 8.441406 26.453125 8.226562 26.507812 C 7.613281 26.601562 7.089844 26.40625 6.589844 26.046875 C 6.382812 25.894531 6.183594 25.734375 5.984375 25.570312 C 5.984375 25.601562 5.980469 25.632812 5.976562 25.664062 C 5.949219 25.980469 5.890625 26.214844 5.648438 26.441406 C 5.386719 26.640625 5.125 26.675781 4.800781 26.636719 C 4.6875 26.601562 4.597656 26.554688 4.503906 26.488281 C 4.476562 26.472656 4.476562 26.472656 4.453125 26.453125 C 4.277344 26.324219 4.175781 26.132812 4.117188 25.925781 C 4.089844 25.644531 4.105469 25.421875 4.265625 25.183594 C 4.285156 25.15625 4.285156 25.15625 4.304688 25.128906 C 4.519531 24.832031 4.816406 24.785156 5.15625 24.78125 Z M 5.15625 24.78125 "/>
<path style=" stroke:none;fill-rule:nonzero;fill:rgb(1.568628%,1.568628%,1.568628%);fill-opacity:1;" d="M 27.4375 5.511719 C 27.628906 5.660156 27.769531 5.867188 27.820312 6.105469 C 27.847656 6.382812 27.8125 6.605469 27.644531 6.835938 C 27.472656 7.039062 27.289062 7.183594 27.015625 7.207031 C 26.324219 7.226562 25.945312 7.015625 25.402344 6.59375 C 25.117188 6.371094 24.84375 6.183594 24.503906 6.042969 C 24.480469 6.035156 24.460938 6.023438 24.4375 6.011719 C 24.308594 5.972656 24.1875 5.976562 24.054688 5.976562 C 24.015625 5.976562 24.015625 5.976562 23.972656 5.972656 C 23.804688 5.972656 23.660156 6 23.5 6.054688 C 23.414062 6.082031 23.347656 6.089844 23.257812 6.074219 C 23.1875 6.027344 23.1875 6.027344 23.140625 5.957031 C 23.125 5.851562 23.125 5.851562 23.140625 5.75 C 23.226562 5.636719 23.3125 5.601562 23.449219 5.566406 C 23.480469 5.554688 23.511719 5.546875 23.546875 5.535156 C 24.125 5.390625 24.617188 5.515625 25.125 5.808594 C 25.238281 5.882812 25.34375 5.960938 25.453125 6.042969 C 25.484375 6.070312 25.519531 6.097656 25.554688 6.125 C 25.605469 6.164062 25.65625 6.203125 25.707031 6.242188 C 25.78125 6.296875 25.851562 6.351562 25.925781 6.398438 C 25.929688 6.375 25.929688 6.347656 25.933594 6.320312 C 25.972656 5.960938 26.082031 5.730469 26.363281 5.5 C 26.683594 5.269531 27.105469 5.316406 27.4375 5.511719 Z M 27.4375 5.511719 "/>
<path style=" stroke:none;fill-rule:nonzero;fill:rgb(1.176471%,1.176471%,1.176471%);fill-opacity:1;" d="M 5.539062 5.480469 C 5.738281 5.613281 5.871094 5.785156 5.945312 6.011719 C 5.960938 6.09375 5.957031 6.175781 5.957031 6.257812 C 5.957031 6.292969 5.957031 6.324219 5.957031 6.355469 C 5.957031 6.378906 5.957031 6.40625 5.957031 6.429688 C 5.984375 6.40625 6.015625 6.386719 6.042969 6.363281 C 6.152344 6.28125 6.257812 6.203125 6.367188 6.121094 C 6.421875 6.078125 6.480469 6.035156 6.535156 5.992188 C 6.921875 5.703125 7.351562 5.46875 7.84375 5.472656 C 7.878906 5.472656 7.878906 5.472656 7.914062 5.472656 C 8.199219 5.476562 8.496094 5.539062 8.742188 5.6875 C 8.800781 5.777344 8.800781 5.777344 8.796875 5.882812 C 8.769531 5.984375 8.769531 5.984375 8.726562 6.042969 C 8.582031 6.101562 8.433594 6.058594 8.289062 6.015625 C 7.871094 5.90625 7.46875 5.980469 7.097656 6.191406 C 6.851562 6.34375 6.625 6.519531 6.398438 6.695312 C 5.90625 7.082031 5.433594 7.261719 4.800781 7.199219 C 4.683594 7.167969 4.597656 7.125 4.503906 7.050781 C 4.476562 7.035156 4.476562 7.035156 4.453125 7.015625 C 4.277344 6.886719 4.175781 6.695312 4.117188 6.488281 C 4.089844 6.207031 4.109375 5.984375 4.265625 5.75 C 4.285156 5.722656 4.300781 5.695312 4.320312 5.667969 C 4.65625 5.328125 5.117188 5.257812 5.539062 5.480469 Z M 5.539062 5.480469 "/>
<path style=" stroke:none;fill-rule:nonzero;fill:rgb(0%,0%,0%);fill-opacity:1;" d="M 17.847656 23.011719 C 17.886719 23.011719 17.886719 23.011719 17.929688 23.011719 C 17.957031 23.011719 17.984375 23.011719 18.015625 23.011719 C 18.046875 23.011719 18.078125 23.011719 18.109375 23.011719 C 18.214844 23.011719 18.320312 23.011719 18.421875 23.011719 C 18.496094 23.011719 18.570312 23.011719 18.648438 23.007812 C 18.828125 23.007812 19.011719 23.007812 19.191406 23.007812 C 19.339844 23.007812 19.488281 23.007812 19.636719 23.007812 C 19.65625 23.007812 19.675781 23.007812 19.699219 23.007812 C 19.742188 23.007812 19.785156 23.007812 19.828125 23.007812 C 20.226562 23.007812 20.628906 23.007812 21.027344 23.007812 C 21.394531 23.007812 21.761719 23.007812 22.128906 23.007812 C 22.503906 23.007812 22.878906 23.007812 23.253906 23.007812 C 23.464844 23.007812 23.679688 23.007812 23.890625 23.007812 C 24.085938 23.007812 24.285156 23.007812 24.484375 23.007812 C 24.558594 23.007812 24.632812 23.007812 24.703125 23.007812 C 24.804688 23.007812 24.902344 23.007812 25.003906 23.007812 C 25.046875 23.007812 25.046875 23.007812 25.089844 23.007812 C 25.285156 23.007812 25.285156 23.007812 25.382812 23.074219 C 25.441406 23.171875 25.4375 23.238281 25.421875 23.347656 C 25.378906 23.414062 25.378906 23.414062 25.304688 23.464844 C 25.203125 23.484375 25.105469 23.484375 25.003906 23.480469 C 24.972656 23.480469 24.941406 23.480469 24.910156 23.484375 C 24.804688 23.484375 24.703125 23.484375 24.597656 23.484375 C 24.523438 23.484375 24.449219 23.484375 24.375 23.484375 C 24.195312 23.484375 24.015625 23.484375 23.832031 23.484375 C 23.6875 23.484375 23.539062 23.484375 23.394531 23.484375 C 23.371094 23.484375 23.351562 23.484375 23.328125 23.484375 C 23.285156 23.484375 23.246094 23.484375 23.203125 23.484375 C 22.804688 23.484375 22.40625 23.484375 22.007812 23.484375 C 21.640625 23.484375 21.277344 23.484375 20.914062 23.484375 C 20.539062 23.484375 20.164062 23.484375 19.789062 23.484375 C 19.746094 23.484375 19.707031 23.484375 19.664062 23.484375 C 19.640625 23.484375 19.621094 23.484375 19.601562 23.484375 C 19.453125 23.484375 19.304688 23.484375 19.160156 23.484375 C 18.960938 23.488281 18.765625 23.484375 18.566406 23.484375 C 18.492188 23.484375 18.421875 23.484375 18.347656 23.484375 C 18.25 23.488281 18.152344 23.484375 18.050781 23.484375 C 18.023438 23.484375 17.996094 23.484375 17.964844 23.488281 C 17.828125 23.484375 17.765625 23.480469 17.65625 23.398438 C 17.601562 23.320312 17.601562 23.320312 17.601562 23.210938 C 17.644531 23.0625 17.691406 23.011719 17.847656 23.011719 Z M 17.847656 23.011719 "/>
<path style=" stroke:none;fill-rule:nonzero;fill:rgb(0%,0%,0%);fill-opacity:1;" d="M 6.996094 23.007812 C 7.027344 23.007812 7.058594 23.007812 7.089844 23.007812 C 7.195312 23.003906 7.296875 23.007812 7.402344 23.007812 C 7.476562 23.007812 7.550781 23.007812 7.625 23.003906 C 7.804688 23.003906 7.984375 23.003906 8.167969 23.003906 C 8.3125 23.003906 8.460938 23.003906 8.605469 23.003906 C 8.628906 23.003906 8.648438 23.003906 8.671875 23.003906 C 8.714844 23.003906 8.753906 23.003906 8.796875 23.003906 C 9.195312 23.003906 9.59375 23.003906 9.992188 23.003906 C 10.359375 23.003906 10.722656 23.003906 11.085938 23.003906 C 11.460938 23.003906 11.835938 23.003906 12.210938 23.003906 C 12.253906 23.003906 12.292969 23.003906 12.335938 23.003906 C 12.359375 23.003906 12.378906 23.003906 12.398438 23.003906 C 12.546875 23.003906 12.695312 23.003906 12.839844 23.003906 C 13.039062 23.003906 13.234375 23.003906 13.433594 23.003906 C 13.507812 23.003906 13.578125 23.003906 13.652344 23.003906 C 13.75 23.003906 13.847656 23.003906 13.949219 23.003906 C 13.976562 23.003906 14.003906 23.003906 14.035156 23.003906 C 14.171875 23.003906 14.234375 23.007812 14.34375 23.089844 C 14.398438 23.171875 14.398438 23.171875 14.402344 23.277344 C 14.367188 23.390625 14.347656 23.410156 14.25 23.464844 C 14.1875 23.476562 14.1875 23.476562 14.121094 23.476562 C 14.09375 23.476562 14.066406 23.476562 14.039062 23.480469 C 14.011719 23.476562 13.980469 23.476562 13.953125 23.476562 C 13.921875 23.476562 13.890625 23.476562 13.859375 23.480469 C 13.753906 23.480469 13.652344 23.480469 13.546875 23.480469 C 13.472656 23.480469 13.398438 23.480469 13.324219 23.480469 C 13.144531 23.480469 12.960938 23.480469 12.78125 23.480469 C 12.632812 23.480469 12.488281 23.480469 12.339844 23.480469 C 12.320312 23.480469 12.296875 23.480469 12.277344 23.480469 C 12.234375 23.480469 12.191406 23.480469 12.148438 23.480469 C 11.75 23.480469 11.351562 23.480469 10.953125 23.480469 C 10.589844 23.480469 10.222656 23.480469 9.859375 23.480469 C 9.484375 23.480469 9.109375 23.480469 8.734375 23.480469 C 8.523438 23.480469 8.316406 23.480469 8.105469 23.480469 C 7.90625 23.480469 7.710938 23.480469 7.511719 23.480469 C 7.4375 23.480469 7.367188 23.480469 7.292969 23.480469 C 7.195312 23.480469 7.09375 23.480469 6.996094 23.480469 C 6.96875 23.480469 6.9375 23.480469 6.910156 23.480469 C 6.714844 23.480469 6.714844 23.480469 6.621094 23.414062 C 6.558594 23.316406 6.5625 23.25 6.578125 23.140625 C 6.679688 22.980469 6.824219 23.003906 6.996094 23.007812 Z M 6.996094 23.007812 "/>
<path style=" stroke:none;fill-rule:nonzero;fill:rgb(0%,0%,0%);fill-opacity:1;" d="M 17.878906 8.523438 C 17.90625 8.523438 17.933594 8.523438 17.960938 8.519531 C 17.988281 8.523438 18.019531 8.523438 18.046875 8.523438 C 18.078125 8.523438 18.109375 8.523438 18.140625 8.519531 C 18.246094 8.519531 18.347656 8.519531 18.453125 8.519531 C 18.527344 8.519531 18.601562 8.519531 18.675781 8.519531 C 18.855469 8.519531 19.039062 8.519531 19.21875 8.519531 C 19.367188 8.519531 19.511719 8.519531 19.660156 8.519531 C 19.679688 8.519531 19.703125 8.519531 19.722656 8.519531 C 19.765625 8.519531 19.808594 8.519531 19.851562 8.519531 C 20.25 8.519531 20.648438 8.519531 21.046875 8.519531 C 21.410156 8.519531 21.777344 8.519531 22.140625 8.519531 C 22.515625 8.519531 22.890625 8.519531 23.265625 8.519531 C 23.476562 8.519531 23.683594 8.519531 23.894531 8.519531 C 24.09375 8.519531 24.289062 8.519531 24.488281 8.519531 C 24.5625 8.519531 24.632812 8.519531 24.707031 8.519531 C 24.804688 8.519531 24.90625 8.519531 25.003906 8.519531 C 25.03125 8.519531 25.0625 8.519531 25.089844 8.519531 C 25.285156 8.519531 25.285156 8.519531 25.378906 8.585938 C 25.441406 8.683594 25.4375 8.75 25.421875 8.859375 C 25.378906 8.925781 25.378906 8.925781 25.304688 8.976562 C 25.203125 8.996094 25.105469 8.992188 25.003906 8.992188 C 24.972656 8.992188 24.941406 8.992188 24.910156 8.992188 C 24.804688 8.996094 24.703125 8.992188 24.597656 8.992188 C 24.523438 8.992188 24.449219 8.992188 24.375 8.996094 C 24.195312 8.996094 24.015625 8.996094 23.832031 8.996094 C 23.6875 8.996094 23.539062 8.996094 23.394531 8.996094 C 23.371094 8.996094 23.351562 8.996094 23.328125 8.996094 C 23.285156 8.996094 23.246094 8.996094 23.203125 8.996094 C 22.804688 8.996094 22.40625 8.996094 22.007812 8.996094 C 21.640625 8.996094 21.277344 8.996094 20.914062 8.996094 C 20.539062 8.996094 20.164062 8.996094 19.789062 8.996094 C 19.746094 8.996094 19.707031 8.996094 19.664062 8.996094 C 19.640625 8.996094 19.621094 8.996094 19.601562 8.996094 C 19.453125 8.996094 19.304688 8.996094 19.160156 8.996094 C 18.960938 8.996094 18.765625 8.996094 18.566406 8.996094 C 18.492188 8.996094 18.421875 8.996094 18.347656 8.996094 C 18.25 8.996094 18.152344 8.996094 18.050781 8.996094 C 18.023438 8.996094 17.996094 8.996094 17.964844 8.996094 C 17.828125 8.996094 17.765625 8.992188 17.65625 8.910156 C 17.601562 8.828125 17.601562 8.828125 17.597656 8.722656 C 17.644531 8.570312 17.722656 8.523438 17.878906 8.523438 Z M 17.878906 8.523438 "/>
<path style=" stroke:none;fill-rule:nonzero;fill:rgb(0%,0%,0%);fill-opacity:1;" d="M 6.996094 8.519531 C 7.027344 8.519531 7.058594 8.519531 7.089844 8.515625 C 7.195312 8.515625 7.296875 8.515625 7.402344 8.515625 C 7.476562 8.515625 7.550781 8.515625 7.625 8.515625 C 7.804688 8.515625 7.984375 8.515625 8.167969 8.515625 C 8.3125 8.515625 8.460938 8.515625 8.605469 8.515625 C 8.628906 8.515625 8.648438 8.515625 8.671875 8.515625 C 8.714844 8.515625 8.753906 8.515625 8.796875 8.515625 C 9.195312 8.515625 9.59375 8.515625 9.992188 8.515625 C 10.359375 8.515625 10.722656 8.515625 11.085938 8.515625 C 11.460938 8.515625 11.835938 8.515625 12.210938 8.515625 C 12.253906 8.515625 12.292969 8.515625 12.335938 8.515625 C 12.359375 8.515625 12.378906 8.515625 12.398438 8.515625 C 12.546875 8.515625 12.695312 8.515625 12.839844 8.515625 C 13.039062 8.511719 13.234375 8.515625 13.433594 8.515625 C 13.507812 8.515625 13.578125 8.515625 13.652344 8.515625 C 13.75 8.511719 13.847656 8.515625 13.949219 8.515625 C 13.976562 8.515625 14.003906 8.515625 14.035156 8.511719 C 14.171875 8.515625 14.234375 8.519531 14.34375 8.601562 C 14.398438 8.679688 14.398438 8.679688 14.402344 8.789062 C 14.367188 8.898438 14.347656 8.921875 14.25 8.976562 C 14.1875 8.988281 14.1875 8.988281 14.121094 8.988281 C 14.09375 8.988281 14.066406 8.988281 14.039062 8.988281 C 14.011719 8.988281 13.980469 8.988281 13.953125 8.988281 C 13.921875 8.988281 13.890625 8.988281 13.859375 8.988281 C 13.753906 8.988281 13.652344 8.988281 13.546875 8.988281 C 13.472656 8.988281 13.398438 8.988281 13.324219 8.992188 C 13.144531 8.992188 12.960938 8.992188 12.78125 8.992188 C 12.632812 8.992188 12.488281 8.992188 12.339844 8.992188 C 12.320312 8.992188 12.296875 8.992188 12.277344 8.992188 C 12.234375 8.992188 12.191406 8.992188 12.148438 8.992188 C 11.75 8.992188 11.351562 8.992188 10.953125 8.992188 C 10.589844 8.992188 10.222656 8.992188 9.859375 8.992188 C 9.484375 8.992188 9.109375 8.992188 8.734375 8.992188 C 8.523438 8.992188 8.316406 8.992188 8.105469 8.992188 C 7.90625 8.992188 7.710938 8.992188 7.511719 8.992188 C 7.4375 8.992188 7.367188 8.992188 7.292969 8.992188 C 7.195312 8.992188 7.09375 8.992188 6.996094 8.992188 C 6.96875 8.992188 6.9375 8.992188 6.910156 8.992188 C 6.714844 8.992188 6.714844 8.992188 6.621094 8.925781 C 6.558594 8.828125 6.5625 8.761719 6.578125 8.652344 C 6.679688 8.492188 6.824219 8.515625 6.996094 8.519531 Z M 6.996094 8.519531 "/>
<path style=" stroke:none;fill-rule:nonzero;fill:rgb(2.352941%,2.352941%,2.352941%);fill-opacity:1;" d="M 16.621094 22.429688 C 16.820312 22.566406 16.929688 22.753906 17.019531 22.972656 C 17.074219 23.300781 17.027344 23.546875 16.859375 23.832031 C 16.667969 24.085938 16.433594 24.234375 16.117188 24.296875 C 15.835938 24.332031 15.582031 24.25 15.355469 24.082031 C 15.132812 23.898438 14.984375 23.648438 14.953125 23.359375 C 14.945312 23.03125 15.039062 22.761719 15.257812 22.519531 C 15.679688 22.148438 16.160156 22.136719 16.621094 22.429688 Z M 16.621094 22.429688 "/>
<path style=" stroke:none;fill-rule:nonzero;fill:rgb(2.352941%,2.352941%,2.352941%);fill-opacity:1;" d="M 16.621094 7.910156 C 16.851562 8.109375 17.011719 8.34375 17.046875 8.648438 C 17.058594 8.941406 16.980469 9.199219 16.792969 9.429688 C 16.578125 9.648438 16.273438 9.777344 15.96875 9.792969 C 15.703125 9.78125 15.449219 9.667969 15.257812 9.480469 C 15.042969 9.226562 14.941406 8.988281 14.953125 8.652344 C 14.984375 8.386719 15.097656 8.15625 15.289062 7.96875 C 15.714844 7.640625 16.171875 7.613281 16.621094 7.910156 Z M 16.621094 7.910156 "/>
<path style=" stroke:none;fill-rule:nonzero;fill:rgb(98.823529%,98.823529%,98.823529%);fill-opacity:1;" d="M 15.96875 2.933594 C 15.988281 2.933594 16.007812 2.933594 16.03125 2.933594 C 16.046875 2.96875 16.066406 3.003906 16.082031 3.039062 C 16.40625 3.667969 16.796875 4.261719 17.257812 4.796875 C 17.304688 4.859375 17.304688 4.859375 17.332031 4.949219 C 17.3125 4.949219 17.296875 4.949219 17.277344 4.949219 C 16.804688 4.972656 16.386719 5.210938 16.058594 5.539062 C 16.050781 5.558594 16.039062 5.578125 16.03125 5.601562 C 15.925781 5.554688 15.859375 5.496094 15.78125 5.417969 C 15.460938 5.125 15.089844 4.980469 14.667969 4.949219 C 14.703125 4.867188 14.746094 4.800781 14.804688 4.730469 C 14.820312 4.714844 14.835938 4.695312 14.851562 4.675781 C 14.867188 4.65625 14.882812 4.636719 14.898438 4.617188 C 15.316406 4.109375 15.726562 3.546875 15.96875 2.933594 Z M 15.96875 2.933594 "/>
<path style=" stroke:none;fill-rule:nonzero;fill:rgb(98.823529%,98.823529%,98.823529%);fill-opacity:1;" d="M 15.96875 26.398438 C 16.058594 26.429688 16.058594 26.429688 16.121094 26.507812 C 16.347656 26.789062 16.757812 26.988281 17.117188 27.03125 C 17.1875 27.039062 17.261719 27.046875 17.332031 27.050781 C 17.28125 27.171875 17.199219 27.269531 17.113281 27.367188 C 16.691406 27.890625 16.355469 28.453125 16.03125 29.035156 C 16.011719 29.035156 15.992188 29.035156 15.96875 29.035156 C 15.953125 29.003906 15.9375 28.96875 15.921875 28.9375 C 15.601562 28.308594 15.199219 27.742188 14.746094 27.207031 C 14.695312 27.140625 14.695312 27.140625 14.667969 27.050781 C 14.691406 27.050781 14.714844 27.046875 14.738281 27.042969 C 15.230469 26.980469 15.636719 26.765625 15.96875 26.398438 Z M 15.96875 26.398438 "/>
<path style=" stroke:none;fill-rule:nonzero;fill:rgb(0%,0%,0%);fill-opacity:1;" d="M 2.257812 23.007812 C 2.304688 23.007812 2.304688 23.007812 2.351562 23.003906 C 2.453125 23.003906 2.554688 23.003906 2.65625 23.003906 C 2.726562 23.003906 2.796875 23.003906 2.867188 23.003906 C 3.015625 23.003906 3.164062 23.003906 3.3125 23.003906 C 3.503906 23.003906 3.691406 23.003906 3.882812 23.003906 C 4.027344 23.003906 4.175781 23.003906 4.320312 23.003906 C 4.390625 23.003906 4.460938 23.003906 4.53125 23.003906 C 4.628906 23.003906 4.726562 23.003906 4.824219 23.003906 C 4.851562 23.003906 4.882812 23.003906 4.910156 23.003906 C 5.105469 23.003906 5.105469 23.003906 5.203125 23.089844 C 5.257812 23.199219 5.25 23.261719 5.214844 23.378906 C 5.132812 23.457031 5.074219 23.476562 4.964844 23.476562 C 4.925781 23.480469 4.925781 23.480469 4.882812 23.480469 C 4.855469 23.480469 4.824219 23.480469 4.796875 23.480469 C 4.765625 23.480469 4.734375 23.480469 4.703125 23.480469 C 4.601562 23.480469 4.503906 23.480469 4.402344 23.480469 C 4.332031 23.480469 4.261719 23.480469 4.191406 23.480469 C 4.046875 23.480469 3.898438 23.480469 3.753906 23.480469 C 3.5625 23.480469 3.375 23.480469 3.1875 23.480469 C 3.042969 23.480469 2.898438 23.480469 2.753906 23.480469 C 2.683594 23.480469 2.617188 23.480469 2.546875 23.480469 C 2.449219 23.480469 2.351562 23.480469 2.253906 23.480469 C 2.226562 23.480469 2.199219 23.480469 2.167969 23.480469 C 1.976562 23.480469 1.976562 23.480469 1.878906 23.414062 C 1.816406 23.316406 1.820312 23.25 1.835938 23.140625 C 1.9375 22.980469 2.085938 23.003906 2.257812 23.007812 Z M 2.257812 23.007812 "/>
<path style=" stroke:none;fill-rule:nonzero;fill:rgb(0%,0%,0%);fill-opacity:1;" d="M 27.175781 23.007812 C 27.222656 23.007812 27.222656 23.007812 27.269531 23.007812 C 27.371094 23.003906 27.472656 23.007812 27.574219 23.007812 C 27.644531 23.007812 27.714844 23.007812 27.785156 23.007812 C 27.933594 23.007812 28.082031 23.007812 28.230469 23.007812 C 28.421875 23.007812 28.609375 23.007812 28.800781 23.007812 C 28.945312 23.007812 29.09375 23.007812 29.238281 23.007812 C 29.308594 23.007812 29.378906 23.007812 29.449219 23.007812 C 29.546875 23.003906 29.644531 23.007812 29.742188 23.007812 C 29.769531 23.007812 29.800781 23.007812 29.828125 23.007812 C 30.023438 23.007812 30.023438 23.007812 30.121094 23.074219 C 30.183594 23.171875 30.179688 23.234375 30.164062 23.347656 C 30.101562 23.421875 30.046875 23.460938 29.953125 23.476562 C 29.871094 23.480469 29.792969 23.484375 29.710938 23.484375 C 29.679688 23.484375 29.652344 23.484375 29.621094 23.484375 C 29.519531 23.484375 29.417969 23.484375 29.316406 23.484375 C 29.246094 23.484375 29.175781 23.484375 29.109375 23.484375 C 28.960938 23.484375 28.816406 23.484375 28.667969 23.484375 C 28.480469 23.484375 28.292969 23.484375 28.105469 23.484375 C 27.960938 23.484375 27.816406 23.484375 27.671875 23.484375 C 27.601562 23.484375 27.53125 23.484375 27.464844 23.484375 C 27.367188 23.488281 27.269531 23.484375 27.171875 23.484375 C 27.144531 23.484375 27.117188 23.484375 27.085938 23.488281 C 26.894531 23.484375 26.894531 23.484375 26.796875 23.398438 C 26.746094 23.300781 26.738281 23.246094 26.753906 23.140625 C 26.859375 22.980469 27.003906 23.003906 27.175781 23.007812 Z M 27.175781 23.007812 "/>
<path style=" stroke:none;fill-rule:nonzero;fill:rgb(0%,0%,0%);fill-opacity:1;" d="M 27.003906 8.523438 C 27.042969 8.519531 27.042969 8.519531 27.085938 8.519531 C 27.113281 8.519531 27.144531 8.519531 27.171875 8.519531 C 27.203125 8.519531 27.234375 8.519531 27.265625 8.519531 C 27.367188 8.519531 27.46875 8.519531 27.570312 8.519531 C 27.644531 8.519531 27.714844 8.519531 27.785156 8.519531 C 27.933594 8.519531 28.082031 8.519531 28.230469 8.519531 C 28.417969 8.519531 28.609375 8.519531 28.800781 8.519531 C 28.945312 8.519531 29.089844 8.519531 29.238281 8.519531 C 29.308594 8.519531 29.378906 8.519531 29.449219 8.519531 C 29.546875 8.519531 29.644531 8.519531 29.742188 8.519531 C 29.785156 8.519531 29.785156 8.519531 29.828125 8.519531 C 30.023438 8.519531 30.023438 8.519531 30.121094 8.585938 C 30.183594 8.683594 30.179688 8.75 30.164062 8.859375 C 30.121094 8.925781 30.121094 8.925781 30.042969 8.976562 C 29.945312 8.996094 29.84375 8.996094 29.742188 8.992188 C 29.695312 8.992188 29.695312 8.992188 29.648438 8.996094 C 29.546875 8.996094 29.445312 8.996094 29.34375 8.996094 C 29.273438 8.996094 29.203125 8.996094 29.132812 8.996094 C 28.984375 8.996094 28.835938 8.996094 28.6875 8.996094 C 28.496094 8.996094 28.308594 8.996094 28.117188 8.996094 C 27.972656 8.996094 27.824219 8.996094 27.679688 8.996094 C 27.609375 8.996094 27.539062 8.996094 27.46875 8.996094 C 27.371094 8.996094 27.273438 8.996094 27.175781 8.996094 C 27.148438 8.996094 27.117188 8.996094 27.089844 8.996094 C 26.894531 8.996094 26.894531 8.996094 26.796875 8.910156 C 26.742188 8.800781 26.753906 8.738281 26.785156 8.621094 C 26.851562 8.535156 26.898438 8.523438 27.003906 8.523438 Z M 27.003906 8.523438 "/>
<path style=" stroke:none;fill-rule:nonzero;fill:rgb(0%,0%,0%);fill-opacity:1;" d="M 2.257812 8.515625 C 2.304688 8.515625 2.304688 8.515625 2.351562 8.515625 C 2.453125 8.515625 2.554688 8.515625 2.65625 8.515625 C 2.726562 8.515625 2.796875 8.515625 2.867188 8.515625 C 3.015625 8.515625 3.164062 8.515625 3.3125 8.515625 C 3.503906 8.515625 3.691406 8.515625 3.882812 8.515625 C 4.027344 8.515625 4.175781 8.515625 4.320312 8.515625 C 4.390625 8.515625 4.460938 8.515625 4.53125 8.515625 C 4.628906 8.511719 4.726562 8.515625 4.824219 8.515625 C 4.851562 8.515625 4.882812 8.515625 4.910156 8.511719 C 5.105469 8.515625 5.105469 8.515625 5.203125 8.601562 C 5.257812 8.710938 5.25 8.773438 5.214844 8.890625 C 5.132812 8.96875 5.074219 8.988281 4.964844 8.988281 C 4.925781 8.988281 4.925781 8.988281 4.882812 8.988281 C 4.855469 8.988281 4.824219 8.988281 4.796875 8.988281 C 4.765625 8.988281 4.734375 8.988281 4.703125 8.992188 C 4.601562 8.992188 4.503906 8.992188 4.402344 8.992188 C 4.332031 8.992188 4.261719 8.992188 4.191406 8.992188 C 4.046875 8.992188 3.898438 8.992188 3.753906 8.992188 C 3.5625 8.992188 3.375 8.992188 3.1875 8.992188 C 3.042969 8.992188 2.898438 8.992188 2.753906 8.992188 C 2.683594 8.992188 2.617188 8.992188 2.546875 8.992188 C 2.449219 8.992188 2.351562 8.992188 2.253906 8.992188 C 2.226562 8.992188 2.199219 8.992188 2.167969 8.992188 C 1.976562 8.992188 1.976562 8.992188 1.878906 8.925781 C 1.816406 8.828125 1.820312 8.761719 1.835938 8.652344 C 1.9375 8.492188 2.085938 8.515625 2.257812 8.515625 Z M 2.257812 8.515625 "/>
<path style=" stroke:none;fill-rule:nonzero;fill:rgb(99.215686%,99.215686%,99.215686%);fill-opacity:1;" d="M 16.335938 22.777344 C 16.445312 22.855469 16.511719 22.960938 16.5625 23.082031 C 16.589844 23.289062 16.570312 23.472656 16.445312 23.644531 C 16.308594 23.773438 16.1875 23.824219 16.003906 23.832031 C 15.847656 23.828125 15.71875 23.800781 15.601562 23.691406 C 15.457031 23.527344 15.421875 23.40625 15.429688 23.195312 C 15.445312 23.023438 15.515625 22.898438 15.644531 22.785156 C 15.851562 22.644531 16.121094 22.65625 16.335938 22.777344 Z M 16.335938 22.777344 "/>
<path style=" stroke:none;fill-rule:nonzero;fill:rgb(99.215686%,99.215686%,99.215686%);fill-opacity:1;" d="M 16.335938 8.261719 C 16.445312 8.339844 16.511719 8.441406 16.5625 8.5625 C 16.589844 8.773438 16.570312 8.953125 16.445312 9.125 C 16.308594 9.257812 16.1875 9.304688 16.003906 9.3125 C 15.847656 9.308594 15.71875 9.285156 15.601562 9.175781 C 15.460938 9.015625 15.421875 8.875 15.429688 8.667969 C 15.449219 8.503906 15.519531 8.378906 15.644531 8.269531 C 15.851562 8.125 16.121094 8.136719 16.335938 8.261719 Z M 16.335938 8.261719 "/>
<path style=" stroke:none;fill-rule:nonzero;fill:rgb(1.960784%,1.960784%,1.960784%);fill-opacity:1;" d="M 16.203125 30.433594 C 16.363281 30.527344 16.46875 30.636719 16.535156 30.816406 C 16.5625 31.007812 16.527344 31.160156 16.414062 31.320312 C 16.285156 31.457031 16.148438 31.527344 15.960938 31.539062 C 15.785156 31.535156 15.664062 31.453125 15.539062 31.332031 C 15.410156 31.1875 15.394531 31.050781 15.398438 30.863281 C 15.417969 30.707031 15.496094 30.605469 15.609375 30.5 C 15.796875 30.363281 15.984375 30.367188 16.203125 30.433594 Z M 16.203125 30.433594 "/>
<path style=" stroke:none;fill-rule:nonzero;fill:rgb(1.176471%,1.176471%,1.176471%);fill-opacity:1;" d="M 16.214844 0.523438 C 16.351562 0.597656 16.4375 0.703125 16.511719 0.835938 C 16.550781 0.976562 16.5625 1.113281 16.507812 1.25 C 16.414062 1.410156 16.296875 1.539062 16.117188 1.601562 C 15.90625 1.628906 15.753906 1.609375 15.582031 1.476562 C 15.449219 1.347656 15.402344 1.21875 15.394531 1.035156 C 15.402344 0.878906 15.433594 0.773438 15.546875 0.660156 C 15.742188 0.488281 15.957031 0.441406 16.214844 0.523438 Z M 16.214844 0.523438 "/>
<path style=" stroke:none;fill-rule:nonzero;fill:rgb(98.431373%,98.431373%,98.431373%);fill-opacity:1;" d="M 27.082031 25.265625 C 27.210938 25.332031 27.289062 25.410156 27.347656 25.539062 C 27.371094 25.710938 27.371094 25.847656 27.296875 26 C 27.191406 26.113281 27.109375 26.183594 26.953125 26.199219 C 26.785156 26.203125 26.679688 26.195312 26.546875 26.074219 C 26.441406 25.960938 26.421875 25.871094 26.414062 25.71875 C 26.421875 25.566406 26.441406 25.476562 26.546875 25.363281 C 26.703125 25.222656 26.882812 25.199219 27.082031 25.265625 Z M 27.082031 25.265625 "/>
<path style=" stroke:none;fill-rule:nonzero;fill:rgb(98.431373%,98.431373%,98.431373%);fill-opacity:1;" d="M 27.082031 5.828125 C 27.210938 5.894531 27.289062 5.972656 27.347656 6.105469 C 27.371094 6.273438 27.371094 6.410156 27.296875 6.566406 C 27.191406 6.675781 27.109375 6.746094 26.953125 6.761719 C 26.785156 6.769531 26.679688 6.757812 26.546875 6.636719 C 26.441406 6.523438 26.421875 6.433594 26.414062 6.28125 C 26.421875 6.128906 26.441406 6.039062 26.546875 5.925781 C 26.703125 5.785156 26.882812 5.761719 27.082031 5.828125 Z M 27.082031 5.828125 "/>
<path style=" stroke:none;fill-rule:nonzero;fill:rgb(98.823529%,98.823529%,98.823529%);fill-opacity:1;" d="M 5.222656 25.261719 C 5.347656 25.320312 5.433594 25.382812 5.492188 25.511719 C 5.542969 25.667969 5.53125 25.8125 5.464844 25.964844 C 5.394531 26.09375 5.296875 26.152344 5.15625 26.191406 C 5.015625 26.214844 4.917969 26.207031 4.789062 26.144531 C 4.683594 26.050781 4.609375 25.972656 4.5625 25.835938 C 4.550781 25.671875 4.554688 25.566406 4.652344 25.421875 C 4.824219 25.25 4.984375 25.195312 5.222656 25.261719 Z M 5.222656 25.261719 "/>
<path style=" stroke:none;fill-rule:nonzero;fill:rgb(98.823529%,98.823529%,98.823529%);fill-opacity:1;" d="M 5.222656 5.824219 C 5.363281 5.886719 5.433594 5.957031 5.492188 6.097656 C 5.539062 6.253906 5.527344 6.378906 5.464844 6.527344 C 5.394531 6.65625 5.296875 6.714844 5.15625 6.753906 C 5.015625 6.777344 4.917969 6.769531 4.789062 6.707031 C 4.683594 6.613281 4.609375 6.535156 4.5625 6.398438 C 4.550781 6.234375 4.554688 6.128906 4.652344 5.984375 C 4.824219 5.8125 4.984375 5.761719 5.222656 5.824219 Z M 5.222656 5.824219 "/>
<path style=" stroke:none;fill-rule:nonzero;fill:rgb(89.411765%,89.411765%,89.411765%);fill-opacity:1;" d="M 15.910156 6.371094 C 15.949219 6.371094 15.988281 6.371094 16.03125 6.371094 C 16.089844 6.460938 16.089844 6.460938 16.078125 6.523438 C 16.070312 6.542969 16.066406 6.558594 16.058594 6.578125 C 15.988281 6.597656 15.988281 6.597656 15.910156 6.605469 C 15.890625 6.585938 15.871094 6.566406 15.851562 6.546875 C 15.867188 6.414062 15.867188 6.414062 15.910156 6.371094 Z M 15.910156 6.371094 "/>
<path style=" stroke:none;fill-rule:nonzero;fill:rgb(90.980393%,90.980393%,90.980393%);fill-opacity:1;" d="M 15.910156 25.394531 C 15.960938 25.402344 16.011719 25.410156 16.058594 25.421875 C 16.078125 25.476562 16.078125 25.476562 16.089844 25.539062 C 16.046875 25.59375 16.046875 25.59375 16 25.628906 C 15.925781 25.601562 15.925781 25.601562 15.851562 25.570312 C 15.878906 25.425781 15.878906 25.425781 15.910156 25.394531 Z M 15.910156 25.394531 "/>
<path style=" stroke:none;fill-rule:nonzero;fill:rgb(93.725491%,93.725491%,93.725491%);fill-opacity:1;" d="M 15.910156 30.84375 C 15.988281 30.855469 15.988281 30.855469 16.058594 30.875 C 16.078125 30.929688 16.078125 30.929688 16.089844 30.992188 C 16.03125 31.050781 16.03125 31.050781 15.953125 31.054688 C 15.929688 31.054688 15.90625 31.054688 15.882812 31.050781 C 15.863281 30.980469 15.863281 30.980469 15.851562 30.902344 C 15.871094 30.882812 15.890625 30.863281 15.910156 30.84375 Z M 15.910156 30.84375 "/>
<path style=" stroke:none;fill-rule:nonzero;fill:rgb(92.941177%,92.941177%,92.941177%);fill-opacity:1;" d="M 15.882812 0.949219 C 15.953125 0.945312 15.953125 0.945312 16.03125 0.949219 C 16.050781 0.96875 16.070312 0.988281 16.089844 1.007812 C 16.078125 1.070312 16.078125 1.070312 16.058594 1.125 C 15.988281 1.144531 15.988281 1.144531 15.910156 1.15625 C 15.890625 1.136719 15.871094 1.117188 15.851562 1.097656 C 15.863281 1.019531 15.863281 1.019531 15.882812 0.949219 Z M 15.882812 0.949219 "/>
</g>
</svg>
